<?xml version="1.0" encoding="UTF-8"?>
<svg xmlns="http://www.w3.org/2000/svg"
     version="1.2"
     baseProfile="tiny-ps"
     viewBox="0 0 512 512">
  <title>RaQuel Synths RQS</title>
  <rect width="512" height="512" fill="#ffffff"/>
  <path d="M 249.06 436.47 L 248.65 326.63 L 236.40 324.59 L 226.19 320.92 L 225.79 391.96 L 149.84 345.82 L 125.35 332.35 L 124.12 327.45 L 98.81 327.86 L 99.22 345.01 L 164.54 383.39 Z M 213.95 196.39 L 205.37 205.37 L 197.61 217.62 L 192.71 230.69 L 190.26 244.57 L 191.08 260.08 L 194.76 273.56 L 200.06 284.58 L 209.45 296.83 L 224.97 308.67 L 238.85 314.39 L 249.88 316.43 L 265.80 316.02 L 279.27 312.34 L 285.81 309.08 L 305.00 327.86 L 341.74 333.58 L 259.27 253.55 L 258.45 281.72 L 267.43 291.52 L 253.14 293.15 L 242.93 291.11 L 234.36 287.03 L 224.97 279.27 L 219.25 271.52 L 214.76 260.49 L 213.54 253.96 L 214.35 238.85 L 219.66 225.38 L 228.64 214.35 L 239.67 207.41 L 249.06 204.56 L 249.06 181.28 L 238.85 182.92 L 229.87 186.18 Z M 56.34 179.65 L 79.62 204.56 L 149.03 204.56 L 157.19 207.41 L 162.09 215.99 L 161.68 232.32 L 159.64 236.40 L 153.93 240.89 L 103.71 242.12 L 102.89 224.56 L 79.21 212.31 L 79.62 318.47 L 103.71 317.65 L 103.30 267.43 L 130.25 266.62 L 173.12 318.06 L 203.33 318.06 L 159.23 265.80 L 166.58 262.12 L 184.96 244.57 L 187.00 238.04 L 186.18 202.51 L 167.40 182.92 L 158.83 179.65 Z M 249.06 62.06 L 99.62 148.21 L 98.81 168.63 L 124.53 168.63 L 124.94 162.50 L 225.79 103.30 L 226.19 176.38 L 236.40 172.71 L 248.65 170.67 Z" fill="#ff071b" fill-rule="evenodd"/>
  <path d="M 262.94 436.47 L 352.77 380.94 L 414.01 344.19 L 413.60 327.45 L 387.88 327.45 L 387.47 331.53 L 286.21 391.96 L 285.81 320.92 L 275.60 324.59 L 262.94 326.63 Z M 262.94 181.28 L 262.94 204.56 L 271.52 207.00 L 281.31 212.72 L 289.07 220.48 L 295.20 231.09 L 298.46 243.34 L 298.46 253.55 L 296.42 263.35 L 292.75 271.52 L 309.49 287.85 L 312.34 283.76 L 316.84 274.37 L 318.88 268.66 L 321.33 256.41 L 321.74 245.79 L 320.92 238.04 L 318.47 227.83 L 316.02 221.30 L 312.34 213.95 L 306.22 204.96 L 295.60 194.35 L 291.11 191.08 L 281.31 185.77 L 271.52 182.51 Z M 346.23 181.28 L 327.45 198.84 L 325.82 202.51 L 325.41 236.81 L 327.86 242.53 L 345.01 257.63 L 351.13 260.49 L 406.66 261.31 L 413.60 267.84 L 414.42 283.36 L 409.52 291.11 L 402.58 293.56 L 318.88 294.38 L 342.15 317.65 L 412.78 317.65 L 416.87 316.43 L 438.10 296.42 L 439.32 260.08 L 437.69 255.18 L 419.73 238.85 L 414.42 236.81 L 356.44 235.59 L 350.32 228.64 L 350.32 211.90 L 353.58 207.00 L 360.52 203.74 L 430.75 203.74 L 455.25 179.24 L 354.40 178.83 Z M 262.94 62.06 L 263.35 170.67 L 274.37 172.30 L 285.81 176.38 L 286.21 102.89 L 387.06 162.50 L 387.88 168.63 L 413.60 168.63 L 413.19 148.62 Z" fill="#11b3c4" fill-rule="evenodd"/>
</svg>
